<svg width="60" height="78" viewBox="0 0 60 78" fill="none" xmlns="http://www.w3.org/2000/svg">
<path d="M42.7586 52.2321L40.4654 54.5894L31.2931 45.3263V65.4643H28.0172V45.3263L18.845 54.5894L16.5517 52.2321L29.6552 39L42.7586 52.2321Z" fill="white"/>
<path fill-rule="evenodd" clip-rule="evenodd" d="M32.1774 0.00408064C33.5227 0.0168958 34.3723 0.0682965 35.1798 0.273403C36.1339 0.515772 37.042 0.915195 37.8677 1.45543C38.7994 2.06507 39.5837 2.91637 41.1517 4.61792L56.1564 20.9003C57.5769 22.4419 58.2875 23.2129 58.7945 24.0975C59.244 24.882 59.5743 25.7304 59.7744 26.6139C60 27.6102 60 28.6631 60 30.7687V63.5144L59.998 65.3004C59.9846 69.2091 59.8778 71.3624 59.0228 73.057L58.8557 73.3726C57.9907 74.9314 56.6864 76.1994 55.1051 77.0132L54.9232 77.1029C53.2722 77.8843 51.1564 77.985 47.4239 77.998L45.6553 78H14.3447C9.32362 78 6.81275 77.9999 4.89494 77.0132C3.31359 76.1994 2.00932 74.9314 1.14426 73.3726L0.977236 73.057C0.122181 71.3624 0.0153763 69.2091 0.00202047 65.3004L0 63.5144V14.4856C0 9.57362 -7.63762e-05 7.04084 0.888335 5.12664L0.977236 4.94301C1.78304 3.34613 3.03876 2.02906 4.58244 1.1555L4.89494 0.986834C6.81275 6.24316e-05 9.32362 0 14.3447 0H30.6506L32.1774 0.00408064ZM14.3447 3.48214C11.7774 3.48214 10.0592 3.48462 8.7372 3.59368C7.45544 3.69943 6.85259 3.8879 6.4608 4.08948C5.42267 4.62363 4.57866 5.47593 4.0497 6.52426C3.85008 6.91989 3.66345 7.52867 3.55873 8.82302C3.45073 10.158 3.44828 11.893 3.44828 14.4856V63.5144C3.44828 66.107 3.45073 67.842 3.55873 69.177C3.66345 70.4713 3.85008 71.0801 4.0497 71.4757C4.57866 72.5241 5.42267 73.3764 6.4608 73.9105C6.85259 74.1121 7.45544 74.3006 8.7372 74.4063C10.0592 74.5154 11.7774 74.5179 14.3447 74.5179H45.6553C48.2226 74.5179 49.9408 74.5154 51.2628 74.4063C52.5446 74.3006 53.1474 74.1121 53.5392 73.9105C54.5773 73.3764 55.4213 72.5241 55.9503 71.4757C56.1499 71.0801 56.3365 70.4713 56.4413 69.177C56.5493 67.842 56.5517 66.107 56.5517 63.5144V30.7687C56.5517 30.6018 56.5506 30.444 56.5504 30.2946H39.3103C35.311 30.2946 32.069 27.0207 32.069 22.9821V3.48758C31.6761 3.484 31.21 3.48214 30.6506 3.48214H14.3447ZM35.5172 22.9821C35.5172 25.0976 37.2155 26.8125 39.3103 26.8125H56.2487C56.1333 26.4761 55.9866 26.151 55.8095 25.842C55.5428 25.3766 55.1586 24.929 53.6321 23.2725L38.6274 6.98945C36.9417 5.16016 36.4825 4.69833 35.9927 4.37784C35.8388 4.27712 35.6799 4.18494 35.5172 4.10036V22.9821Z" fill="white"/>
</svg>
